<svg xmlns="http://www.w3.org/2000/svg" viewBox="0 0 340.07 510.14"><defs><style>.cls-1{fill:#1dc7ea;}</style></defs><g id="Layer_2" data-name="Layer 2"><g id="Layer_1-2" data-name="Layer 1"><path class="cls-1" d="M188.07,0c4.26,1.1,8.56,2.09,12.78,3.31,12.42,3.6,25.25,6.27,37.1,11.23,11.05,4.62,21.4,11.21,31.45,17.84,11.53,7.61,21.24,17.37,30.3,27.89a161.28,161.28,0,0,1,23.8,36.15A178.45,178.45,0,0,1,338,142.08c2.72,15.34,2.26,30.72,1.54,45.94a122.42,122.42,0,0,1-13,48.57c-8.68,17.4-18.87,34-28.44,51-8.23,14.56-16.45,29.13-24.79,43.63-8.26,14.34-16.72,28.57-25,42.91-7,12.11-13.74,24.34-20.72,36.45-8.35,14.49-16.9,28.87-25.26,43.36-7,12.1-13.78,24.3-20.71,36.42-3.68,6.45-7.48,12.84-11.54,19.78-5.11-8.72-10-16.92-14.73-25.16q-12.73-21.9-25.39-43.83c-5.84-10.13-11.54-20.33-17.37-30.46-7.2-12.53-14.52-25-21.71-37.52-6.94-12.12-13.71-24.33-20.68-36.43-8.37-14.5-16.9-28.89-25.3-43.37C37.32,280.3,30,267.06,22.26,254.11c-9.49-15.78-15.35-33-19.37-50.7C1,195.21.89,186.57.48,178.1c-.4-8.3-.85-16.7,0-24.92a186.65,186.65,0,0,1,5.34-28.1A159.49,159.49,0,0,1,30.23,73.4,172,172,0,0,1,64.88,36.83C82.21,23.31,101.16,13.16,122.3,7.29c9.17-2.55,18.62-4.07,27.93-6.11A6.6,6.6,0,0,0,152.07,0ZM169.89,233.61c33.76,3.34,64.49-29.92,64.53-62.46s-26.73-68.39-71.2-64.58c-29.08,2.49-57.49,28.52-57.46,65.2C105.78,203.77,136.57,236.78,169.89,233.61Z"/></g></g></svg>